<svg width="241" height="267" viewBox="0 0 241 267" fill="none" xmlns="http://www.w3.org/2000/svg">
<path d="M40.75 266.417C29.6736 266.417 20.2587 262.54 12.5052 254.786C4.75174 247.033 0.875 237.618 0.875 226.542V186.667H40.75V0.583252H240.125V226.542C240.125 237.618 236.248 247.033 228.495 254.786C220.741 262.54 211.326 266.417 200.25 266.417H40.75ZM200.25 239.833C204.016 239.833 207.173 238.559 209.72 236.012C212.268 233.464 213.542 230.308 213.542 226.542V27.1666H67.3333V186.667H186.958V226.542C186.958 230.308 188.232 233.464 190.78 236.012C193.327 238.559 196.484 239.833 200.25 239.833ZM80.625 93.6249V67.0416H200.25V93.6249H80.625ZM80.625 133.5V106.917H200.25V133.5H80.625ZM40.75 239.833H160.375V213.25H27.4583V226.542C27.4583 230.308 28.7321 233.464 31.2797 236.012C33.8273 238.559 36.984 239.833 40.75 239.833ZM40.75 239.833H27.4583H160.375H40.75Z" fill="#3C3C3C"/>
</svg>
