<svg width="20" height="24" viewBox="0 0 20 24" fill="none" xmlns="http://www.w3.org/2000/svg">
<path d="M8 21.2308L3.01537 23.3744C2.29743 23.6838 1.61539 23.6244 0.969233 23.1962C0.323078 22.768 0 22.1701 0 21.4026V6.15383C0 5.54017 0.205556 5.02778 0.616667 4.61667C1.02778 4.20556 1.54017 4 2.15383 4H13.8462C14.4598 4 14.9722 4.20556 15.3833 4.61667C15.7944 5.02778 16 5.54017 16 6.15383V21.4026C16 22.1701 15.6769 22.768 15.0308 23.1962C14.3846 23.6244 13.7026 23.6838 12.9846 23.3744L8 21.2308ZM18.6667 20.6667V2.15383C18.6667 1.9487 18.5812 1.76067 18.4103 1.58973C18.2393 1.4188 18.0513 1.33333 17.8462 1.33333H4V0H17.8462C18.4598 0 18.9722 0.205556 19.3833 0.616667C19.7944 1.02778 20 1.54017 20 2.15383V20.6667H18.6667Z" fill="#9F1954"/>
</svg>
