<svg width="15" height="15" viewBox="0 0 15 15" fill="none" xmlns="http://www.w3.org/2000/svg">
<path d="M6.55 13.9027L0.225 7.60771C0.141667 7.50778 0.083333 7.41186 0.0499997 7.31993C0.0166664 7.22867 0 7.13308 0 7.03316C0 6.93324 0.0166664 6.83732 0.0499997 6.74539C0.083333 6.65413 0.141667 6.55854 0.225 6.45862L6.55 0.13866C6.65 0.0553926 6.76267 0.0094292 6.888 0.000769439C7.01267 -0.00722419 7.13333 0.047066 7.25 0.16364C7.36667 0.26356 7.425 0.380134 7.425 0.513361C7.425 0.646588 7.36667 0.763162 7.25 0.863082L1.575 6.53356H13.625C13.775 6.53356 13.896 6.57919 13.988 6.67045C14.0793 6.76238 14.125 6.88328 14.125 7.03316C14.125 7.18304 14.0793 7.30395 13.988 7.39587C13.896 7.48713 13.775 7.53276 13.625 7.53276H1.575L7.275 13.2282C7.375 13.3115 7.425 13.4197 7.425 13.553C7.425 13.6862 7.36667 13.8028 7.25 13.9027C7.15 14.0193 7.03333 14.0775 6.9 14.0775C6.76667 14.0775 6.65 14.0193 6.55 13.9027Z" fill="black"/>
</svg>
