<svg width="12" height="12" viewBox="0 0 12 12" fill="none" xmlns="http://www.w3.org/2000/svg">
<path d="M5.05928 10.6154L2.42415 11.6872C2.04462 11.8419 1.68405 11.8122 1.34246 11.5981C1.00087 11.384 0.830078 11.0851 0.830078 10.7013V3.07692C0.830078 2.77008 0.938745 2.51389 1.15608 2.30833C1.37341 2.10278 1.64429 2 1.9687 2H8.14986C8.47428 2 8.74515 2.10278 8.96249 2.30833C9.17982 2.51389 9.28849 2.77008 9.28849 3.07692V10.7013C9.28849 11.0851 9.11769 11.384 8.7761 11.5981C8.43451 11.8122 8.07394 11.8419 7.6944 11.6872L5.05928 10.6154ZM10.6982 10.3333V1.07692C10.6982 0.97435 10.653 0.880334 10.5627 0.794867C10.4723 0.7094 10.3729 0.666667 10.2645 0.666667H2.94468V0H10.2645C10.5889 0 10.8598 0.102778 11.0771 0.308333C11.2944 0.513889 11.4031 0.770083 11.4031 1.07692V10.3333H10.6982Z" fill="white"/>
</svg>
