<svg width="21" height="24" viewBox="0 0 21 24" fill="none" xmlns="http://www.w3.org/2000/svg">
<path d="M8.4062 21.2308L3.407 23.3744C2.68696 23.6838 2.00292 23.6244 1.35488 23.1962C0.706835 22.768 0.382812 22.1701 0.382812 21.4026V6.15383C0.382812 5.54017 0.588969 5.02778 1.00128 4.61667C1.4136 4.20556 1.92748 4 2.54294 4H14.2695C14.8849 4 15.3988 4.20556 15.8111 4.61667C16.2234 5.02778 16.4296 5.54017 16.4296 6.15383V21.4026C16.4296 22.1701 16.1056 22.768 15.4575 23.1962C14.8095 23.6244 14.1254 23.6838 13.4054 23.3744L8.4062 21.2308ZM19.1041 20.6667V2.15383C19.1041 1.9487 19.0183 1.76067 18.8469 1.58973C18.6755 1.4188 18.4869 1.33333 18.2812 1.33333H4.39451V0H18.2812C18.8966 0 19.4105 0.205556 19.8228 0.616667C20.2351 1.02778 20.4413 1.54017 20.4413 2.15383V20.6667H19.1041Z" fill="#950142"/>
</svg>
