<svg width="20" height="20" viewBox="0 0 20 20" fill="none" xmlns="http://www.w3.org/2000/svg">
<path d="M9.6868 14.3307C9.54278 14.3307 9.40991 14.3072 9.2882 14.2602C9.16647 14.2132 9.04732 14.1316 8.93076 14.0154L5.42821 10.523C5.29792 10.3931 5.22978 10.2401 5.22378 10.0641C5.21777 9.88799 5.28591 9.72645 5.42821 9.57943C5.57566 9.43243 5.73467 9.35764 5.90524 9.35506C6.07582 9.3525 6.23484 9.42474 6.38229 9.57176L9.01818 12.2V1.33329C9.01818 1.14354 9.08204 0.984993 9.20977 0.85766C9.33748 0.730304 9.49648 0.666626 9.6868 0.666626C9.87711 0.666626 10.0361 0.730304 10.1638 0.85766C10.2915 0.984993 10.3554 1.14354 10.3554 1.33329V12.2L12.9913 9.57176C13.1216 9.44182 13.2763 9.37387 13.4555 9.36789C13.6346 9.36191 13.7979 9.43243 13.9454 9.57943C14.0877 9.72645 14.1601 9.88371 14.1627 10.0512C14.1652 10.2188 14.0928 10.376 13.9454 10.523L10.4428 14.0154C10.3263 14.1316 10.2071 14.2132 10.0854 14.2602C9.96368 14.3072 9.83082 14.3307 9.6868 14.3307ZM2.4863 19.3333C1.87084 19.3333 1.35695 19.1277 0.944642 18.7166C0.532328 18.3055 0.326172 17.7931 0.326172 17.1795V14.6154C0.326172 14.4256 0.390036 14.267 0.517764 14.1397C0.64547 14.0124 0.804477 13.9487 0.994788 13.9487C1.18508 13.9487 1.34408 14.0124 1.47181 14.1397C1.59954 14.267 1.6634 14.4256 1.6634 14.6154V17.1795C1.6634 17.3846 1.74912 17.5726 1.92055 17.7436C2.09201 17.9145 2.28059 18 2.4863 18H16.8873C17.093 18 17.2816 17.9145 17.453 17.7436C17.6245 17.5726 17.7102 17.3846 17.7102 17.1795V14.6154C17.7102 14.4256 17.774 14.267 17.9018 14.1397C18.0295 14.0124 18.1885 13.9487 18.3788 13.9487C18.5691 13.9487 18.7281 14.0124 18.8558 14.1397C18.9836 14.267 19.0474 14.4256 19.0474 14.6154V17.1795C19.0474 17.7931 18.8413 18.3055 18.4289 18.7166C18.0166 19.1277 17.5027 19.3333 16.8873 19.3333H2.4863Z" fill="#950142"/>
</svg>
