<svg width="24" height="25" viewBox="0 0 24 25" fill="none" xmlns="http://www.w3.org/2000/svg">
<path d="M24.0004 12.5235C24.0004 11.6552 23.9225 10.8203 23.7778 10.0188H12.2451V14.7554H18.8352C18.5513 16.2861 17.6886 17.5829 16.3917 18.4512V21.5236H20.3491C22.6646 19.3919 24.0004 16.2527 24.0004 12.5235Z" fill="#4285F4"/>
<path d="M12.2444 24.4901C15.5506 24.4901 18.3224 23.3936 20.3484 21.5234L16.391 18.451C15.2945 19.1857 13.8919 19.6198 12.2444 19.6198C9.05512 19.6198 6.35564 17.4658 5.39273 14.5715H1.30176V17.7441C3.31663 21.746 7.4577 24.4901 12.2444 24.4901Z" fill="#34A853"/>
<path d="M5.3934 14.5718C5.1485 13.8371 5.00935 13.0523 5.00935 12.2453C5.00935 11.4382 5.1485 10.6534 5.3934 9.91868V6.74609H1.30243C0.445276 8.45246 -0.000755439 10.3357 9.60445e-07 12.2453C9.60445e-07 14.2212 0.473107 16.0913 1.30243 17.7444L5.3934 14.5718Z" fill="#FBBC05"/>
<path d="M12.2444 4.8702C14.0422 4.8702 15.6563 5.48802 16.9254 6.7014L20.4375 3.18929C18.3169 1.21338 15.545 0 12.2444 0C7.4577 0 3.31663 2.74401 1.30176 6.74593L5.39273 9.91852C6.35564 7.02423 9.05512 4.8702 12.2444 4.8702Z" fill="#EA4335"/>
</svg>
