<svg width="20" height="21" viewBox="0 0 20 21" fill="none" xmlns="http://www.w3.org/2000/svg">
<path d="M0.666992 19.3333V7.74358C0.666992 7.40253 0.74327 7.07945 0.895826 6.77434C1.0484 6.46921 1.2593 6.21792 1.52853 6.02048L8.70802 0.584576C9.08374 0.297399 9.51314 0.153809 9.99623 0.153809C10.4793 0.153809 10.9114 0.297399 11.2926 0.584576L18.4721 6.02048C18.7413 6.21792 18.9522 6.46921 19.1048 6.77434C19.2574 7.07945 19.3337 7.40253 19.3337 7.74358V19.3333C19.3337 19.6906 19.2008 20.0021 18.935 20.2679C18.6691 20.5337 18.3576 20.6666 18.0003 20.6666H13.4875C13.1824 20.6666 12.9266 20.5634 12.7202 20.357C12.5138 20.1506 12.4106 19.8949 12.4106 19.5897V13.2307C12.4106 12.9256 12.3074 12.6698 12.101 12.4634C11.8946 12.257 11.6388 12.1538 11.3337 12.1538H8.66699C8.36186 12.1538 8.10609 12.257 7.89969 12.4634C7.69327 12.6698 7.59006 12.9256 7.59006 13.2307V19.5897C7.59006 19.8949 7.48686 20.1506 7.28046 20.357C7.07404 20.5634 6.81827 20.6666 6.51316 20.6666H2.00033C1.64306 20.6666 1.33151 20.5337 1.06569 20.2679C0.799892 20.0021 0.666992 19.6906 0.666992 19.3333Z" fill="#950142"/>
</svg>
