<svg width="24" height="24" viewBox="0 0 24 24" fill="none" xmlns="http://www.w3.org/2000/svg">
<path d="M12 13.3333C11.6222 13.3333 11.3056 13.2056 11.05 12.95C10.7944 12.6944 10.6667 12.3778 10.6667 12C10.6667 11.6222 10.7944 11.3056 11.05 11.05C11.3056 10.7944 11.6222 10.6667 12 10.6667C12.3778 10.6667 12.6944 10.7944 12.95 11.05C13.2056 11.3056 13.3333 11.6222 13.3333 12C13.3333 12.3778 13.2056 12.6944 12.95 12.95C12.6944 13.2056 12.3778 13.3333 12 13.3333ZM12.0045 24C10.3451 24 8.78496 23.6851 7.32413 23.0554C5.86331 22.4256 4.59259 21.5709 3.51197 20.4913C2.43137 19.4117 1.57589 18.1422 0.945533 16.6827C0.315178 15.2233 0 13.6638 0 12.0045C0 10.3451 0.314878 8.78496 0.944633 7.32413C1.57441 5.86331 2.4291 4.59259 3.5087 3.51197C4.5883 2.43137 5.85782 1.57589 7.31727 0.945534C8.77673 0.315179 10.3362 0 11.9955 0C13.6549 0 15.215 0.314877 16.6759 0.944633C18.1367 1.57441 19.4074 2.4291 20.488 3.5087C21.5686 4.5883 22.4241 5.85782 23.0545 7.31727C23.6848 8.77673 24 10.3362 24 11.9955C24 13.6549 23.6851 15.215 23.0554 16.6759C22.4256 18.1367 21.5709 19.4074 20.4913 20.488C19.4117 21.5686 18.1422 22.4241 16.6827 23.0545C15.2233 23.6848 13.6638 24 12.0045 24ZM12 22.6667C14.9778 22.6667 17.5 21.6333 19.5667 19.5667C21.6333 17.5 22.6667 14.9778 22.6667 12C22.6667 9.02222 21.6333 6.5 19.5667 4.43333C17.5 2.36667 14.9778 1.33333 12 1.33333C9.02222 1.33333 6.5 2.36667 4.43333 4.43333C2.36667 6.5 1.33333 9.02222 1.33333 12C1.33333 14.9778 2.36667 17.5 4.43333 19.5667C6.5 21.6333 9.02222 22.6667 12 22.6667ZM12 22.6667C9.02222 22.6667 6.5 21.6333 4.43333 19.5667C2.36667 17.5 1.33333 14.9778 1.33333 12C1.33333 9.02222 2.36667 6.5 4.43333 4.43333C6.5 2.36667 9.02222 1.33333 12 1.33333C14.9778 1.33333 17.5 2.36667 19.5667 4.43333C21.6333 6.5 22.6667 9.02222 22.6667 12C22.6667 14.9778 21.6333 17.5 19.5667 19.5667C17.5 21.6333 14.9778 22.6667 12 22.6667ZM13.6692 14.0974C13.7684 14.0479 13.8521 13.9889 13.9205 13.9205C13.9889 13.8522 14.0479 13.7684 14.0974 13.6692L17.6641 7.0282C17.7923 6.80598 17.768 6.60726 17.591 6.43203C17.4141 6.25683 17.2077 6.22479 16.9718 6.3359L10.3308 9.90257C10.2316 9.95215 10.1478 10.0111 10.0795 10.0795C10.0111 10.1479 9.95214 10.2316 9.90257 10.3308L6.3359 16.9718C6.20768 17.2111 6.23118 17.4184 6.4064 17.5936C6.58162 17.7688 6.78889 17.7923 7.0282 17.6641L13.6692 14.0974Z" fill="#D6ADBF"/>
</svg>
