<svg width="17" height="14" viewBox="0 0 17 14" fill="none" xmlns="http://www.w3.org/2000/svg">
<path d="M16.6101 6.67773C15.9665 5.37589 15.2005 4.31417 14.3122 3.49257L13.3805 4.38695C14.1402 5.08392 14.802 5.9957 15.3742 7.13124C13.8507 10.1582 11.6883 11.5961 8.73293 11.5961C7.84585 11.5961 7.02877 11.465 6.2817 11.2027L5.27224 12.1718C6.30984 12.6317 7.4634 12.8617 8.73293 12.8617C12.2522 12.8617 14.878 11.1021 16.6101 7.583C16.6798 7.44147 16.7159 7.28689 16.7159 7.13036C16.7159 6.97384 16.6798 6.81926 16.6101 6.67773ZM15.4461 1.04148L14.6655 0.291243C14.6519 0.278169 14.6358 0.267796 14.618 0.260719C14.6002 0.253643 14.5812 0.25 14.5619 0.25C14.5427 0.25 14.5236 0.253643 14.5058 0.260719C14.488 0.267796 14.4719 0.278169 14.4583 0.291243L12.4556 2.21288C11.3515 1.67148 10.1106 1.40077 8.73293 1.40077C5.21364 1.40077 2.58791 3.16035 0.855735 6.67949C0.78611 6.82102 0.75 6.9756 0.75 7.13212C0.75 7.28865 0.78611 7.44323 0.855735 7.58476C1.54775 8.98398 2.38088 10.1055 3.35512 10.9494L1.4175 12.809C1.39005 12.8353 1.37463 12.8711 1.37463 12.9084C1.37463 12.9457 1.39005 12.9814 1.4175 13.0078L2.19918 13.7582C2.22665 13.7845 2.26389 13.7994 2.30273 13.7994C2.34156 13.7994 2.3788 13.7845 2.40627 13.7582L15.4461 1.24046C15.4597 1.2274 15.4706 1.21189 15.4779 1.19482C15.4853 1.17775 15.4891 1.15945 15.4891 1.14097C15.4891 1.12249 15.4853 1.10419 15.4779 1.08712C15.4706 1.07005 15.4597 1.05454 15.4461 1.04148ZM2.0917 7.13124C3.61697 4.10429 5.77944 2.6664 8.73293 2.6664C9.73159 2.6664 10.6396 2.83093 11.4634 3.16544L10.1762 4.40119C9.56655 4.08893 8.86854 3.97305 8.18509 4.07062C7.50164 4.1682 6.86896 4.47406 6.38038 4.9431C5.89179 5.41214 5.57318 6.01952 5.47154 6.67563C5.3699 7.33174 5.49062 8.00183 5.81588 8.58706L4.28841 10.0534C3.44301 9.33712 2.71426 8.36663 2.0917 7.13124ZM6.60891 7.13124C6.60923 6.82128 6.68571 6.51576 6.83213 6.2395C6.97856 5.96324 7.1908 5.72404 7.45162 5.54132C7.71243 5.3586 8.01447 5.23752 8.33319 5.18792C8.65191 5.13831 8.97832 5.16158 9.28591 5.25583L6.70614 7.73242C6.64148 7.53807 6.60868 7.33526 6.60891 7.13124Z" fill="#718096"/>
<path d="M8.65973 9.10008C8.59637 9.10008 8.53394 9.09727 8.47205 9.09182L7.50488 10.0203C8.08659 10.2342 8.72038 10.2817 9.32962 10.1571C9.93887 10.0326 10.4975 9.74126 10.9379 9.31842C11.3784 8.89557 11.6819 8.3593 11.8116 7.77442C11.9413 7.18955 11.8918 6.58111 11.6691 6.02267L10.7019 6.95115C10.7076 7.01057 10.7105 7.07051 10.7105 7.13133C10.7107 7.38991 10.6577 7.64598 10.5547 7.8849C10.4517 8.12382 10.3006 8.34091 10.1102 8.52375C9.91971 8.7066 9.69358 8.85161 9.4447 8.9505C9.19582 9.04939 8.92908 9.10022 8.65973 9.10008Z" fill="#718096"/>
</svg>
