<svg width="11" height="14" viewBox="0 0 11 14" fill="none" xmlns="http://www.w3.org/2000/svg">
<path d="M0.125 11.9513V2.04873C0.125 1.72225 0.233572 1.46113 0.450717 1.2654C0.667883 1.06967 0.921232 0.971802 1.21077 0.971802C1.30125 0.971802 1.39601 0.984201 1.49503 1.009C1.59403 1.03378 1.68852 1.07096 1.77852 1.12053L9.59106 6.09747C9.75737 6.21371 9.8821 6.34619 9.96525 6.4949C10.0484 6.64361 10.09 6.81199 10.09 7.00003C10.09 7.18808 10.0484 7.35646 9.96525 7.50517C9.8821 7.65388 9.75737 7.78636 9.59106 7.9026L1.77852 12.8795C1.68795 12.9291 1.59283 12.9663 1.49319 12.9911C1.39354 13.0159 1.29843 13.0283 1.20786 13.0283C0.917967 13.0283 0.665018 12.9304 0.449011 12.7347C0.233003 12.5389 0.125 12.2778 0.125 11.9513Z" fill="#950142"/>
</svg>
