<svg width="24" height="26" viewBox="0 0 24 26" fill="none" xmlns="http://www.w3.org/2000/svg">
<path d="M19.9886 25.6667C19.0608 25.6667 18.2712 25.3426 17.6197 24.6945C16.9682 24.0463 16.6425 23.2593 16.6425 22.3334C16.6425 22.1561 16.6579 21.9724 16.6888 21.7824C16.7196 21.5925 16.7659 21.4137 16.8276 21.2462L6.47438 15.1641C6.14693 15.5317 5.76633 15.8184 5.33258 16.0244C4.89885 16.2304 4.43425 16.3334 3.93878 16.3334C3.01014 16.3334 2.22081 16.0096 1.57078 15.362C0.920729 14.7145 0.595703 13.9282 0.595703 13.003C0.595703 12.078 0.920729 11.2906 1.57078 10.6411C2.22081 9.9915 3.01014 9.66671 3.93878 9.66671C4.43425 9.66671 4.89885 9.7697 5.33258 9.97567C5.76633 10.1817 6.14693 10.4684 6.47438 10.8359L16.8276 4.75387C16.7659 4.58636 16.7196 4.40762 16.6888 4.21764C16.6579 4.02766 16.6425 3.84402 16.6425 3.66671C16.6425 2.74077 16.9672 1.95374 17.6167 1.30561C18.2661 0.657452 19.0548 0.333374 19.9825 0.333374C20.9103 0.333374 21.7 0.657152 22.3514 1.30471C23.0029 1.95229 23.3286 2.73861 23.3286 3.66367C23.3286 4.58879 23.0036 5.37612 22.3536 6.02567C21.7035 6.67525 20.9142 7.00004 19.9856 7.00004C19.4901 7.00004 19.0255 6.89705 18.5918 6.69108C18.158 6.4851 17.7774 6.19834 17.45 5.83081L7.09672 11.9129C7.15844 12.0804 7.20473 12.2585 7.23559 12.4473C7.26644 12.6361 7.28186 12.8185 7.28186 12.9947C7.28186 13.1709 7.26644 13.3552 7.23559 13.5475C7.20473 13.7398 7.15844 13.9197 7.09672 14.0872L17.45 20.1693C17.7774 19.8017 18.158 19.515 18.5918 19.309C19.0255 19.103 19.4901 19 19.9856 19C20.9142 19 21.7035 19.3238 22.3536 19.9714C23.0036 20.6189 23.3286 21.4053 23.3286 22.3304C23.3286 23.2555 23.0039 24.0428 22.3545 24.6923C21.705 25.3419 20.9164 25.6667 19.9886 25.6667Z" fill="#950142"/>
</svg>
